<?xml version="1.0" standalone="no"?><!DOCTYPE svg PUBLIC "-//W3C//DTD SVG 1.1//EN" "http://www.w3.org/Graphics/SVG/1.1/DTD/svg11.dtd"><svg width="32" height="32" viewBox="0 0 32 32" version="1.1" xmlns="http://www.w3.org/2000/svg" xmlns:xlink="http://www.w3.org/1999/xlink"><defs><style type="text/css"></style></defs><g class="transform-group"><g transform="scale(0.03125, 0.03125)"><path d="M678.345788 15.540706c0.234918 0 0.472847 0 0.710776 0 0.518024 0.632471 0.981835 1.319153 1.557082 1.8944 36.818824 36.833882 73.643671 73.661741 110.477553 110.483576 0.572235 0.572235 1.261929 1.036047 1.8944 1.551059 0 0.237929 0 0.475859 0 0.713788-0.969788 0.849318-1.993788 1.644424-2.909365 2.553976-125.292424 125.277365-250.575812 250.563765-375.871247 375.838118-1.014965 1.005929-2.234729 1.801035-4.008659 3.213553 1.578165 1.171576 2.650353 1.776941 3.490635 2.614212 125.554447 125.524329 251.090824 251.063718 376.636235 376.597082 0.825224 0.825224 1.776941 1.532988 2.6624 2.291953 0 0.240941 0 0.478871 0 0.719812-0.707765 0.605365-1.472753 1.159529-2.135341 1.819106-36.662212 36.650165-73.321412 73.309365-109.965553 109.968565-0.659576 0.6656-1.219765 1.424565-1.825129 2.141365-0.237929 0-0.475859 0-0.710776 0-0.777035-0.888471-1.490824-1.834165-2.322071-2.6624-163.614118-163.626165-327.237271-327.246306-490.869459-490.857412-0.825224-0.828235-1.767906-1.548047-2.650353-2.319059 0-0.240941 0-0.478871 0-0.7168 0.9728-0.855341 1.9968-1.659482 2.912376-2.572047C348.882824 345.365082 512.337318 181.9136 675.782776 18.453082 676.698353 17.543529 677.493459 16.513506 678.345788 15.540706z" fill="#f60"></path></g></g></svg>
